<?xml version="1.0" encoding="utf-8"?>
<!-- Generator: Adobe Illustrator 24.3.0, SVG Export Plug-In . SVG Version: 6.00 Build 0)  -->
<svg version="1.1" id="Layer_1" xmlns="http://www.w3.org/2000/svg" xmlns:xlink="http://www.w3.org/1999/xlink" x="0px" y="0px"
	 viewBox="0 0 300 260" style="enable-background:new 0 0 300 260;" xml:space="preserve">
<style type="text/css">
	.st0{fill:#FFFFFF;stroke:#03211D;stroke-width:0.8763;stroke-miterlimit:10;}
	.st1{fill:#06BCA6;}
	.st2{fill:none;stroke:#39B8AB;stroke-width:2.629;stroke-linecap:round;stroke-miterlimit:10;}
	.st3{fill:#BFDBD1;}
</style>
<g>
	<g>
		<g>
			<path class="st0" d="M171.5,88.1c-8.9-4.9-19.7-4.9-28.6,0c0,0-87.3,48-87.3,48.3c0,19.7-0.1,79-0.1,79
				c0,18.7,15.2,33.8,33.8,33.8h135.7c18.7,0,33.8-15.2,33.8-33.8c0,0,0-59.4,0-79.1C258.9,136.1,171.5,88.1,171.5,88.1z"/>
			<path class="st0" d="M209.5,210h-99c-10.4,0-18.8-8.4-18.8-18.8V80.7c0-10.4,8.4-18.8,18.8-18.8h99c10.4,0,18.8,8.4,18.8,18.8
				v110.5C228.3,201.6,219.9,210,209.5,210z"/>
			<path class="st0" d="M258.8,136.4c-4.1,2.5-87.2,48.5-87.2,48.5c-8.9,4.9-19.7,4.9-28.6,0c0,0-83.2-46-87.2-48.5
				c-0.1,0.1-0.2,0.2-0.2,0.3v78.6c0,18.7,15.2,33.8,33.8,33.8h135.7c18.7,0,33.8-15.2,33.8-33.8v-78.6
				C258.9,136.6,258.9,136.5,258.8,136.4z"/>
		</g>
		<g>
			<g>
				<path class="st1" d="M145.1,148.5l-21.9-27.6c-3.2-4-2.5-9.8,1.5-13c4-3.2,9.8-2.5,13,1.5l10.7,13.5L182,97.8
					c4.1-3.1,9.9-2.2,12.9,1.8s2.2,9.9-1.8,12.9L145.1,148.5z"/>
			</g>
		</g>
	</g>
	<line class="st2" x1="27.6" y1="249.6" x2="45.9" y2="249.6"/>
	<line class="st2" x1="196.8" y1="249.6" x2="258.9" y2="249.6"/>
	<line class="st2" x1="55.6" y1="249.6" x2="177.5" y2="249.6"/>
	<line class="st2" x1="276.4" y1="249.6" x2="296.2" y2="249.6"/>
	<path class="st3" d="M9.4,208.9c-1.9,0-3.7-0.8-5-2.1c-1.3-1.3-2-3.1-1.9-4.9c0-1.8,0.8-3.6,2.1-4.8c1.3-1.2,3-1.9,4.8-1.9
		c1.9,0,3.7,0.8,5,2.1c2.6,2.7,2.5,7.1-0.2,9.8C12.9,208.3,11.2,208.9,9.4,208.9z M9.4,196.7c-1.4,0-2.7,0.5-3.7,1.5
		c-1,1-1.6,2.3-1.6,3.7c0,1.4,0.5,2.8,1.5,3.8c1,1,2.4,1.6,3.8,1.6h0c1.4,0,2.7-0.5,3.7-1.5c2.1-2,2.2-5.4,0.2-7.5
		C12.2,197.3,10.8,196.7,9.4,196.7z"/>
	<path class="st3" d="M208.4,19.3c-1.4,0-2.6-0.6-3.6-1.6s-1.5-2.3-1.4-3.6c0-1.4,0.6-2.6,1.6-3.6c1-0.9,2.2-1.4,3.6-1.4l0.1,0
		c1.4,0,2.6,0.6,3.6,1.6c0.9,1,1.5,2.3,1.4,3.6c0,1.4-0.6,2.6-1.6,3.6c-1,0.9-2.2,1.4-3.5,1.4L208.4,19.3z M208.5,10.7
		c-0.9,0-1.8,0.3-2.4,1c-0.7,0.6-1.1,1.5-1.1,2.5c0,0.9,0.3,1.8,1,2.5c0.6,0.7,1.5,1.1,2.5,1.1c0,0,0,0,0,0c1,0,1.8-0.3,2.5-1
		c0.7-0.6,1.1-1.5,1.1-2.5c0-0.9-0.3-1.8-1-2.5C210.4,11.1,209.5,10.7,208.5,10.7v-0.4V10.7z"/>
	<path class="st3" d="M290.3,229.7c-0.6,0-1.1-0.2-1.5-0.6l-1.7-1.8c-0.2-0.2-0.5-0.4-0.9-0.4c-0.3,0-0.6,0.1-0.9,0.3l-1.9,1.8
		c-0.4,0.4-0.9,0.6-1.5,0.6c-0.6,0-1.1-0.2-1.5-0.6c-0.8-0.8-0.8-2.2,0.1-3l1.9-1.8c0.2-0.2,0.4-0.5,0.4-0.9c0-0.3-0.1-0.6-0.3-0.9
		l-1.7-1.8c-0.8-0.8-0.8-2.2,0.1-3l0.2-0.2c0.4-0.4,0.9-0.6,1.5-0.6c0.6,0,1.1,0.2,1.5,0.6l1.7,1.8c0.2,0.2,0.5,0.4,0.9,0.4
		c0.3,0,0.6-0.1,0.9-0.3l1.9-1.8c0.4-0.4,0.9-0.6,1.5-0.6c0.6,0,1.1,0.2,1.5,0.6c0.4,0.4,0.6,0.9,0.6,1.5c0,0.6-0.2,1.1-0.6,1.5
		l-1.9,1.8c-0.5,0.5-0.5,1.3,0,1.7l1.7,1.8c0.8,0.8,0.8,2.2-0.1,3l-0.2,0.2C291.4,229.5,290.8,229.7,290.3,229.7z"/>
	<path class="st3" d="M274.6,161c-0.4-0.1-0.8-0.5-0.7-0.9c0.1-0.5,0.1-1,0.2-1.5c0.1-0.4,0.4-0.7,0.8-0.7l0.1,0
		c0.4,0.1,0.8,0.4,0.7,0.9c-0.1,0.5-0.1,1-0.2,1.6C275.4,160.7,275.1,161,274.6,161L274.6,161z M275,157.3c-0.4,0-0.8-0.4-0.7-0.9
		c0.1-0.7,0.1-1.4,0.2-2.2c0-0.4,0.4-0.7,0.8-0.7c0.3,0,0.5,0.1,0.6,0.3c0.1,0.2,0.2,0.4,0.2,0.6c-0.1,0.7-0.1,1.5-0.2,2.2
		C275.8,157,275.5,157.3,275,157.3L275,157.3z M275.4,152.9c-0.2,0-0.4-0.1-0.6-0.3s-0.2-0.4-0.2-0.6c0-0.7,0.1-1.4,0.1-2.2
		c0-0.4,0.4-0.8,0.8-0.8c0.5,0,0.8,0.4,0.8,0.8c0,0.7-0.1,1.5-0.1,2.2C276.2,152.6,275.9,152.9,275.4,152.9L275.4,152.9z
		 M275.6,148.5c-0.5,0-0.8-0.4-0.8-0.8c0-0.7,0-1.4,0-2.2c0-0.5,0.3-0.8,0.8-0.8c0.3,0,0.5,0.1,0.6,0.2c0.1,0.2,0.2,0.4,0.2,0.6
		c0,0.7,0,1.5,0,2.2C276.4,148.2,276.1,148.5,275.6,148.5L275.6,148.5z M275.7,144.2c-0.4,0-0.8-0.4-0.8-0.8c0-0.7,0-1.5,0-2.2
		c0-0.2,0.1-0.4,0.2-0.6c0.1-0.2,0.3-0.2,0.6-0.3c0.5,0,0.8,0.4,0.8,0.8c0,0.7,0,1.5,0,2.2C276.5,143.8,276.1,144.1,275.7,144.2
		L275.7,144.2L275.7,144.2z M275.6,139.8c-0.4,0-0.8-0.3-0.8-0.8c0-0.7-0.1-1.5-0.1-2.2c0-0.2,0.1-0.4,0.2-0.6
		c0.1-0.2,0.3-0.3,0.6-0.3c0,0,0,0,0,0c0.5,0,0.8,0.3,0.8,0.8c0,0.7,0.1,1.5,0.1,2.2C276.4,139.4,276,139.8,275.6,139.8L275.6,139.8
		z M275.3,135.4c-0.4,0-0.8-0.3-0.8-0.7c-0.1-0.7-0.1-1.4-0.2-2.2c0-0.4,0.3-0.8,0.7-0.9c0,0,0,0,0,0c0.5,0,0.8,0.3,0.9,0.7
		c0.1,0.7,0.1,1.5,0.2,2.2C276.1,135,275.8,135.4,275.3,135.4L275.3,135.4z M274.9,131c-0.4,0-0.7-0.3-0.8-0.7
		c-0.1-0.7-0.2-1.4-0.3-2.2c0-0.2,0-0.4,0.2-0.6c0.1-0.2,0.3-0.3,0.5-0.3l0.1,0c0.4,0,0.7,0.3,0.8,0.7c0.1,0.7,0.2,1.5,0.3,2.2
		c0,0.2,0,0.4-0.2,0.6C275.4,130.9,275.2,131,274.9,131L274.9,131z M274.3,126.7c-0.4,0-0.7-0.3-0.8-0.7c-0.1-0.7-0.2-1.4-0.4-2.1
		c0-0.2,0-0.4,0.1-0.6s0.3-0.3,0.5-0.3l0,0l0.1,0c0.4,0,0.7,0.3,0.8,0.7c0.1,0.7,0.2,1.4,0.4,2.2c0.1,0.4-0.2,0.8-0.7,0.9
		L274.3,126.7z M273.5,122.4c-0.4,0-0.7-0.3-0.8-0.6c-0.1-0.7-0.3-1.4-0.4-2.1c0-0.2,0-0.4,0.1-0.6c0.1-0.2,0.3-0.3,0.5-0.3l0,0
		l0.1,0c0.4,0,0.7,0.3,0.8,0.6c0.2,0.7,0.3,1.4,0.4,2.2c0.1,0.4-0.2,0.9-0.6,0.9l0,0L273.5,122.4z M272.6,118.1
		c-0.4,0-0.7-0.3-0.8-0.6c-0.2-0.7-0.3-1.4-0.5-2.1c-0.1-0.2,0-0.4,0.1-0.6c0.1-0.2,0.3-0.3,0.5-0.4c0.1,0,0.1,0,0.2,0
		c0.4,0,0.7,0.2,0.8,0.6c0.2,0.7,0.4,1.4,0.5,2.1c0,0.2,0,0.4-0.1,0.6c-0.1,0.2-0.3,0.3-0.5,0.4l0,0L272.6,118.1z M271.5,113.9
		c-0.4,0-0.7-0.2-0.8-0.6c-0.2-0.7-0.4-1.4-0.6-2.1c-0.1-0.2,0-0.4,0.1-0.6c0.1-0.2,0.3-0.3,0.5-0.4c0.1,0,0.2,0,0.2,0
		c0.4,0,0.7,0.2,0.8,0.6c0.2,0.7,0.4,1.4,0.6,2.1c0.1,0.4-0.1,0.9-0.6,1C271.7,113.8,271.6,113.9,271.5,113.9z M270.3,109.7
		c-0.4,0-0.7-0.2-0.8-0.6c-0.2-0.7-0.4-1.4-0.7-2.1c-0.1-0.4,0.1-0.9,0.5-1c0.1,0,0.2,0,0.3,0c0.3,0,0.7,0.2,0.8,0.5
		c0.2,0.7,0.5,1.4,0.7,2.1c0.1,0.4-0.1,0.9-0.5,1C270.4,109.6,270.4,109.7,270.3,109.7z M268.9,105.5c-0.3,0-0.6-0.2-0.8-0.5
		c-0.2-0.7-0.5-1.4-0.7-2.1c-0.2-0.4,0.1-0.9,0.5-1c0.1,0,0.2-0.1,0.3-0.1c0.3,0,0.6,0.2,0.8,0.5c0.3,0.7,0.5,1.4,0.8,2.1
		c0.1,0.2,0.1,0.4,0,0.6c-0.1,0.2-0.3,0.3-0.5,0.4C269.1,105.5,269,105.5,268.9,105.5z M267.4,101.4c-0.3,0-0.6-0.2-0.7-0.5
		c-0.3-0.7-0.5-1.3-0.8-2c-0.2-0.4,0-0.9,0.4-1.1c0.1,0,0.2-0.1,0.3-0.1c0.3,0,0.6,0.2,0.7,0.5c0.3,0.7,0.6,1.4,0.8,2
		c0.2,0.4,0,0.9-0.5,1C267.6,101.4,267.5,101.4,267.4,101.4z M265.7,97.3c-0.3,0-0.6-0.2-0.7-0.5c-0.3-0.7-0.6-1.3-0.9-2
		c-0.1-0.2-0.1-0.4,0-0.6s0.2-0.4,0.4-0.5c0.1,0,0.2-0.1,0.3-0.1c0.3,0,0.6,0.2,0.7,0.5c0.3,0.7,0.6,1.3,0.9,2
		c0.2,0.4,0,0.9-0.4,1.1C265.9,97.3,265.8,97.3,265.7,97.3z M263.9,93.3c-0.3,0-0.6-0.2-0.7-0.5c-0.3-0.7-0.6-1.3-1-2
		c-0.2-0.4,0-0.9,0.4-1.1c0.1-0.1,0.2-0.1,0.4-0.1c0.3,0,0.6,0.2,0.7,0.4c0.3,0.7,0.7,1.3,1,2c0.2,0.4,0,0.9-0.4,1.1
		C264.1,93.3,264,93.3,263.9,93.3z M261.9,89.4c-0.3,0-0.6-0.2-0.7-0.4c-0.3-0.6-0.7-1.3-1-1.9c-0.1-0.2-0.1-0.4-0.1-0.6
		c0.1-0.2,0.2-0.4,0.4-0.5c0.1-0.1,0.3-0.1,0.4-0.1c0.3,0,0.6,0.2,0.7,0.4c0.4,0.6,0.7,1.3,1,1.9c0.2,0.4,0.1,0.9-0.3,1.1
		C262.1,89.4,262,89.4,261.9,89.4z M259.8,85.6c-0.3,0-0.6-0.2-0.7-0.4c-0.4-0.6-0.7-1.3-1.1-1.9c-0.1-0.2-0.1-0.4-0.1-0.6
		c0.1-0.2,0.2-0.4,0.4-0.5c0.1-0.1,0.3-0.1,0.4-0.1c0.3,0,0.5,0.2,0.7,0.4c0.4,0.6,0.7,1.3,1.1,1.9c0.1,0.2,0.1,0.4,0.1,0.6
		c-0.1,0.2-0.2,0.4-0.4,0.5C260.1,85.5,259.9,85.6,259.8,85.6z M257.5,81.8c-0.3,0-0.5-0.1-0.7-0.4c-0.4-0.6-0.8-1.2-1.2-1.9
		c-0.1-0.2-0.2-0.4-0.1-0.6c0-0.2,0.2-0.4,0.4-0.5c0.1-0.1,0.3-0.1,0.4-0.1c0.3,0,0.5,0.1,0.7,0.4c0.4,0.6,0.8,1.2,1.2,1.9
		c0.1,0.2,0.1,0.4,0.1,0.6c0,0.2-0.2,0.4-0.4,0.5C257.8,81.7,257.7,81.8,257.5,81.8z M255.2,78.1c-0.3,0-0.5-0.1-0.7-0.4
		c-0.4-0.6-0.8-1.2-1.2-1.8c-0.1-0.2-0.2-0.4-0.1-0.6c0-0.2,0.2-0.4,0.3-0.5c0.1-0.1,0.3-0.1,0.5-0.1c0.3,0,0.5,0.1,0.7,0.4
		c0.4,0.6,0.8,1.2,1.2,1.8c0.2,0.4,0.1,0.9-0.2,1.1C255.5,78,255.3,78.1,255.2,78.1z M252.7,74.5c-0.3,0-0.5-0.1-0.7-0.3
		c-0.4-0.6-0.8-1.2-1.3-1.8c-0.3-0.4-0.2-0.9,0.2-1.1c0.1-0.1,0.3-0.2,0.5-0.2c0.3,0,0.5,0.1,0.6,0.3c0.4,0.6,0.9,1.2,1.3,1.8
		c0.3,0.4,0.2,0.9-0.2,1.1C253,74.4,252.9,74.5,252.7,74.5z"/>
	<path class="st3" d="M42.2,215.7c-0.3,0-0.5-0.1-0.7-0.4c-0.4-0.6-0.8-1.3-1.2-1.9c-0.1-0.2-0.1-0.4-0.1-0.6
		c0.1-0.2,0.2-0.4,0.4-0.5c0.1-0.1,0.3-0.1,0.4-0.1c0.3,0,0.5,0.1,0.7,0.4c0.4,0.6,0.8,1.2,1.1,1.9c0.2,0.4,0.1,0.9-0.3,1.1
		C42.5,215.6,42.4,215.7,42.2,215.7z M39.9,211.9c-0.3,0-0.6-0.2-0.7-0.4c-0.4-0.6-0.7-1.3-1.1-1.9c-0.2-0.4-0.1-0.9,0.3-1.1
		c0.1-0.1,0.3-0.1,0.4-0.1c0.3,0,0.6,0.2,0.7,0.4c0.4,0.6,0.7,1.3,1.1,1.9c0.2,0.4,0.1,0.9-0.3,1.1
		C40.2,211.9,40.1,211.9,39.9,211.9z M37.8,208.1c-0.3,0-0.6-0.2-0.7-0.4c-0.3-0.7-0.7-1.3-1-2c-0.1-0.2-0.1-0.4,0-0.6
		c0.1-0.2,0.2-0.4,0.4-0.5c0.1-0.1,0.2-0.1,0.4-0.1c0.3,0,0.6,0.2,0.7,0.4c0.3,0.6,0.7,1.3,1,1.9c0.1,0.2,0.1,0.4,0.1,0.6
		c-0.1,0.2-0.2,0.4-0.4,0.5C38.1,208,37.9,208.1,37.8,208.1z M35.8,204.2c-0.3,0-0.6-0.2-0.7-0.4c-0.3-0.7-0.6-1.3-1-2
		c-0.2-0.4,0-0.9,0.4-1.1c0.1,0,0.2-0.1,0.3-0.1c0.3,0,0.6,0.2,0.7,0.5c0.3,0.7,0.6,1.3,0.9,2c0.2,0.4,0,0.9-0.4,1.1
		C36,204.1,35.9,204.2,35.8,204.2z M34,200.2c-0.3,0-0.6-0.2-0.7-0.5c-0.3-0.7-0.6-1.3-0.9-2c-0.1-0.2-0.1-0.4,0-0.6
		c0.1-0.2,0.2-0.4,0.4-0.4c0.1,0,0.2-0.1,0.3-0.1c0.3,0,0.6,0.2,0.7,0.5c0.3,0.7,0.6,1.3,0.9,2c0.1,0.2,0.1,0.4,0,0.6
		c-0.1,0.2-0.2,0.4-0.4,0.4C34.2,200.2,34.1,200.2,34,200.2z M32.2,196.2c-0.3,0-0.6-0.2-0.7-0.5c-0.3-0.7-0.5-1.4-0.8-2.1
		c-0.2-0.4,0-0.9,0.5-1c0.1,0,0.2-0.1,0.3-0.1c0.3,0,0.6,0.2,0.8,0.5c0.3,0.7,0.5,1.4,0.8,2c0.1,0.2,0.1,0.4,0,0.6s-0.2,0.4-0.4,0.4
		C32.4,196.1,32.3,196.2,32.2,196.2z M30.7,192.1c-0.3,0-0.6-0.2-0.8-0.5c-0.3-0.7-0.5-1.4-0.7-2.1c-0.1-0.2-0.1-0.4,0-0.6
		c0.1-0.2,0.3-0.3,0.5-0.4c0.1,0,0.2,0,0.3,0c0.3,0,0.6,0.2,0.8,0.5c0.2,0.7,0.5,1.4,0.7,2.1c0.1,0.2,0.1,0.4,0,0.6
		c-0.1,0.2-0.3,0.3-0.5,0.4C30.9,192,30.8,192.1,30.7,192.1z M29.3,187.9c-0.4,0-0.7-0.2-0.8-0.6c-0.2-0.7-0.4-1.4-0.7-2.1
		c-0.1-0.4,0.1-0.9,0.5-1c0.1,0,0.2,0,0.2,0c0.3,0,0.7,0.2,0.8,0.6c0.2,0.7,0.4,1.4,0.7,2.1c0.1,0.2,0,0.4,0,0.6
		c-0.1,0.2-0.3,0.3-0.5,0.4C29.4,187.9,29.3,187.9,29.3,187.9z M28,183.7c-0.4,0-0.7-0.2-0.8-0.6c-0.2-0.7-0.4-1.4-0.6-2.1
		c-0.1-0.4,0.1-0.9,0.6-1c0.1,0,0.1,0,0.2,0c0.4,0,0.7,0.2,0.8,0.6c0.2,0.7,0.4,1.4,0.6,2.1c0.1,0.2,0,0.4-0.1,0.6
		c-0.1,0.2-0.3,0.3-0.5,0.4C28.1,183.7,28.1,183.7,28,183.7z M26.9,179.5c-0.4,0-0.7-0.3-0.8-0.6c-0.2-0.7-0.3-1.4-0.5-2.1
		c-0.1-0.4,0.2-0.9,0.6-1l0,0l0.1,0c0.4,0,0.7,0.3,0.8,0.6c0.2,0.7,0.3,1.4,0.5,2.1c0.1,0.4-0.2,0.9-0.6,1
		C27,179.5,26.9,179.5,26.9,179.5z M25.9,175.2c-0.4,0-0.7-0.3-0.8-0.6c-0.2-0.7-0.3-1.4-0.4-2.2c0-0.2,0-0.4,0.1-0.6
		c0.1-0.2,0.3-0.3,0.5-0.3l0,0l0.1,0c0.4,0,0.7,0.3,0.8,0.7c0.1,0.7,0.3,1.4,0.4,2.1c0.1,0.4-0.2,0.9-0.6,1l0,0L25.9,175.2z
		 M25,170.9c-0.4,0-0.7-0.3-0.8-0.7c-0.1-0.7-0.2-1.4-0.4-2.2c-0.1-0.4,0.2-0.8,0.7-0.9l0.1,0c0.4,0,0.7,0.3,0.8,0.7
		c0.1,0.7,0.2,1.4,0.4,2.1c0,0.2,0,0.4-0.1,0.6c-0.1,0.2-0.3,0.3-0.5,0.3l0,0L25,170.9z M24.4,166.6c-0.4,0-0.7-0.3-0.8-0.7
		c-0.1-0.7-0.2-1.5-0.3-2.2c0-0.2,0-0.4,0.2-0.6c0.1-0.2,0.3-0.3,0.5-0.3l0.1,0c0.4,0,0.8,0.3,0.8,0.7c0.1,0.7,0.2,1.4,0.3,2.2
		c0,0.2,0,0.4-0.2,0.6s-0.3,0.3-0.5,0.3L24.4,166.6z M23.8,162.2c-0.4,0-0.8-0.3-0.8-0.7c-0.1-0.7-0.1-1.5-0.2-2.2
		c0-0.4,0.3-0.8,0.7-0.9c0,0,0,0,0,0c0.5,0,0.8,0.3,0.9,0.7c0.1,0.7,0.1,1.4,0.2,2.2C24.7,161.8,24.4,162.2,23.8,162.2L23.8,162.2z
		 M23.5,157.9c-0.4,0-0.8-0.3-0.8-0.7c0-0.7-0.1-1.5-0.1-2.2c0-0.4,0.3-0.8,0.8-0.8c0,0,0,0,0,0c0.5,0,0.8,0.3,0.8,0.8
		c0,0.7,0.1,1.4,0.1,2.2c0,0.2-0.1,0.4-0.2,0.6C23.9,157.8,23.7,157.8,23.5,157.9L23.5,157.9z M23.3,153.5c-0.4,0-0.8-0.3-0.8-0.8
		c0-0.7,0-1.5-0.1-2.2c0-0.2,0.1-0.4,0.2-0.6c0.1-0.2,0.4-0.2,0.6-0.2c0.4,0,0.8,0.4,0.8,0.8c0,0.7,0,1.4,0.1,2.2
		C24.1,153.1,23.7,153.5,23.3,153.5L23.3,153.5z M23.2,149.1c-0.4,0-0.8-0.4-0.8-0.8c0-0.7,0-1.5,0-2.2c0-0.4,0.4-0.8,0.8-0.8
		c0.5,0,0.8,0.4,0.8,0.8c0,0.7,0,1.5,0,2.2C24,148.7,23.6,149.1,23.2,149.1L23.2,149.1z M23.2,144.7c-0.2,0-0.4-0.1-0.5-0.3
		c-0.1-0.2-0.2-0.4-0.2-0.6c0-0.7,0.1-1.5,0.1-2.2c0-0.4,0.4-0.8,0.8-0.8c0.5,0,0.8,0.4,0.8,0.8c0,0.7-0.1,1.4-0.1,2.2
		C24.1,144.4,23.7,144.7,23.2,144.7L23.2,144.7z M23.4,140.4c-0.4,0-0.8-0.4-0.7-0.9c0.1-0.7,0.1-1.5,0.2-2.2c0-0.4,0.4-0.7,0.8-0.7
		c0.3,0,0.5,0.1,0.6,0.3c0.1,0.2,0.2,0.4,0.2,0.6c-0.1,0.7-0.1,1.4-0.2,2.2C24.3,140,23.9,140.4,23.4,140.4L23.4,140.4z M23.8,136
		c-0.2,0-0.4-0.1-0.5-0.3c-0.1-0.2-0.2-0.4-0.2-0.6c0.1-0.7,0.2-1.5,0.2-2.2c0-0.4,0.4-0.7,0.8-0.7l0.1,0c0.2,0,0.4,0.1,0.5,0.3
		c0.1,0.2,0.2,0.4,0.2,0.6c-0.1,0.7-0.2,1.4-0.2,2.2C24.6,135.7,24.3,136,23.8,136L23.8,136z M24.3,131.6c-0.2,0-0.4-0.1-0.5-0.3
		c-0.1-0.2-0.2-0.4-0.2-0.6c0.1-0.7,0.2-1.5,0.3-2.2c0.1-0.4,0.4-0.7,0.8-0.7l0.1,0c0.2,0,0.4,0.1,0.5,0.3c0.1,0.2,0.2,0.4,0.1,0.6
		c-0.1,0.7-0.2,1.4-0.3,2.2c-0.1,0.4-0.4,0.7-0.8,0.7L24.3,131.6z M25.1,127.3l-0.1,0c-0.2,0-0.4-0.2-0.5-0.3s-0.2-0.4-0.1-0.6
		c0.1-0.7,0.3-1.4,0.4-2.2c0.1-0.4,0.4-0.7,0.8-0.7h0l0.1,0c0.4,0.1,0.7,0.5,0.6,0.9c-0.1,0.7-0.3,1.4-0.4,2.1
		C25.8,127,25.5,127.3,25.1,127.3L25.1,127.3z M25.9,123l-0.1,0c-0.2,0-0.4-0.2-0.5-0.3c-0.1-0.2-0.2-0.4-0.1-0.6
		c0.2-0.7,0.3-1.4,0.5-2.2c0.1-0.4,0.4-0.6,0.8-0.6h0l0.1,0c0.2,0,0.4,0.2,0.5,0.4c0.1,0.2,0.1,0.4,0.1,0.6
		c-0.2,0.7-0.3,1.4-0.5,2.1C26.6,122.8,26.3,123,25.9,123L25.9,123z M26.9,118.8c-0.1,0-0.1,0-0.2,0c-0.2-0.1-0.4-0.2-0.5-0.4
		c-0.1-0.2-0.1-0.4-0.1-0.6c0.2-0.7,0.4-1.4,0.5-2.1c0.1-0.4,0.4-0.6,0.8-0.6c0.1,0,0.1,0,0.2,0c0.4,0.1,0.7,0.6,0.6,1
		c-0.2,0.7-0.4,1.4-0.5,2.1C27.6,118.5,27.3,118.8,26.9,118.8z M28,114.5c-0.1,0-0.1,0-0.2,0c-0.2-0.1-0.4-0.2-0.5-0.4
		c-0.1-0.2-0.1-0.4-0.1-0.6c0.2-0.7,0.4-1.4,0.6-2.1c0.1-0.3,0.4-0.6,0.8-0.6c0.1,0,0.2,0,0.2,0c0.4,0.1,0.7,0.6,0.5,1
		c-0.2,0.7-0.4,1.4-0.6,2.1C28.7,114.3,28.4,114.5,28,114.5z M29.3,110.3c-0.1,0-0.2,0-0.2,0c-0.2-0.1-0.4-0.2-0.5-0.4
		c-0.1-0.2-0.1-0.4,0-0.6c0.2-0.7,0.5-1.4,0.7-2.1c0.1-0.3,0.4-0.5,0.8-0.5c0.1,0,0.2,0,0.3,0c0.2,0.1,0.4,0.2,0.5,0.4
		c0.1,0.2,0.1,0.4,0,0.6c-0.2,0.7-0.5,1.4-0.7,2.1C30,110.1,29.7,110.3,29.3,110.3z M30.7,106.2c-0.1,0-0.2,0-0.3,0
		c-0.4-0.2-0.6-0.6-0.5-1c0.2-0.7,0.5-1.4,0.8-2.1c0.1-0.3,0.4-0.5,0.8-0.5c0.1,0,0.2,0,0.3,0.1c0.4,0.2,0.6,0.6,0.5,1
		c-0.3,0.7-0.5,1.4-0.8,2C31.4,106,31.1,106.2,30.7,106.2z M32.3,102.1c-0.1,0-0.2,0-0.3-0.1c-0.2-0.1-0.4-0.2-0.4-0.4
		c-0.1-0.2-0.1-0.4,0-0.6c0.3-0.7,0.6-1.4,0.8-2c0.1-0.3,0.4-0.5,0.7-0.5c0.1,0,0.2,0,0.3,0.1c0.2,0.1,0.3,0.2,0.4,0.4
		c0.1,0.2,0.1,0.4,0,0.6c-0.3,0.7-0.6,1.3-0.8,2C32.9,101.9,32.6,102.1,32.3,102.1z M34,98.1c-0.1,0-0.2,0-0.3-0.1
		c-0.2-0.1-0.4-0.2-0.4-0.4c-0.1-0.2-0.1-0.4,0-0.6c0.3-0.7,0.6-1.3,0.9-2c0.1-0.3,0.4-0.5,0.7-0.5c0.1,0,0.2,0,0.3,0.1
		c0.4,0.2,0.6,0.7,0.4,1.1c-0.3,0.7-0.6,1.3-0.9,2C34.6,97.9,34.3,98.1,34,98.1z M35.8,94.1c-0.1,0-0.2,0-0.3-0.1
		c-0.4-0.2-0.6-0.7-0.4-1.1c0.3-0.7,0.6-1.3,1-2c0.1-0.3,0.4-0.4,0.7-0.4c0.1,0,0.2,0,0.4,0.1c0.4,0.2,0.6,0.7,0.4,1.1
		c-0.3,0.6-0.6,1.3-1,1.9C36.4,93.9,36.1,94.1,35.8,94.1z M37.8,90.2c-0.1,0-0.3,0-0.4-0.1c-0.2-0.1-0.3-0.3-0.4-0.5
		c-0.1-0.2,0-0.4,0.1-0.6c0.3-0.6,0.7-1.3,1-1.9c0.1-0.3,0.4-0.4,0.7-0.4c0.1,0,0.3,0,0.4,0.1c0.2,0.1,0.3,0.3,0.4,0.5
		c0.1,0.2,0,0.4-0.1,0.6c-0.3,0.6-0.7,1.3-1,1.9C38.3,90,38.1,90.2,37.8,90.2z M39.9,86.4c-0.1,0-0.3,0-0.4-0.1
		c-0.4-0.2-0.5-0.7-0.3-1.1c0.4-0.6,0.7-1.3,1.1-1.9c0.1-0.2,0.4-0.4,0.7-0.4c0.1,0,0.3,0,0.4,0.1c0.4,0.2,0.5,0.7,0.3,1.1
		c-0.4,0.6-0.7,1.2-1.1,1.9C40.4,86.2,40.1,86.4,39.9,86.4z M42.1,82.6c-0.1,0-0.3,0-0.4-0.1c-0.4-0.2-0.5-0.7-0.3-1.1
		c0.4-0.6,0.8-1.2,1.2-1.9c0.1-0.2,0.4-0.4,0.7-0.4c0.2,0,0.3,0,0.4,0.1c0.2,0.1,0.3,0.3,0.4,0.5c0,0.2,0,0.4-0.1,0.6
		c-0.4,0.6-0.8,1.2-1.2,1.8C42.6,82.5,42.4,82.6,42.1,82.6z M44.5,78.9c-0.2,0-0.3,0-0.4-0.1c-0.2-0.1-0.3-0.3-0.3-0.5
		c0-0.2,0-0.4,0.1-0.6c0.4-0.6,0.8-1.2,1.2-1.8c0.1-0.2,0.4-0.3,0.7-0.3c0.2,0,0.3,0,0.5,0.1c0.2,0.1,0.3,0.3,0.3,0.5
		c0,0.2,0,0.4-0.1,0.6c-0.4,0.6-0.8,1.2-1.2,1.8C45,78.8,44.7,78.9,44.5,78.9z M46.9,75.3c-0.2,0-0.3-0.1-0.5-0.2
		c-0.2-0.1-0.3-0.3-0.3-0.5c0-0.2,0-0.4,0.1-0.6c0.4-0.6,0.9-1.2,1.3-1.8c0.2-0.2,0.4-0.3,0.6-0.3c0.2,0,0.3,0.1,0.5,0.2
		c0.2,0.1,0.3,0.3,0.3,0.5c0,0.2,0,0.4-0.2,0.6c-0.4,0.6-0.9,1.2-1.3,1.8C47.4,75.2,47.2,75.3,46.9,75.3z M49.5,71.8
		c-0.2,0-0.3-0.1-0.5-0.2c-0.4-0.3-0.4-0.8-0.1-1.1c0.4-0.6,0.9-1.2,1.4-1.7c0.2-0.2,0.4-0.3,0.6-0.3c0.2,0,0.4,0.1,0.5,0.2
		c0.2,0.1,0.3,0.3,0.3,0.5c0,0.2,0,0.4-0.2,0.6c-0.5,0.6-0.9,1.1-1.3,1.7C50,71.7,49.8,71.8,49.5,71.8z M52.3,68.4
		c-0.2,0-0.4-0.1-0.5-0.2c-0.3-0.3-0.4-0.8-0.1-1.1c0.5-0.6,0.9-1.1,1.4-1.7c0.2-0.2,0.4-0.3,0.6-0.3c0.2,0,0.4,0.1,0.5,0.2
		c0.2,0.1,0.3,0.3,0.3,0.5c0,0.2-0.1,0.4-0.2,0.6c-0.5,0.6-0.9,1.1-1.4,1.7C52.7,68.3,52.5,68.4,52.3,68.4z M55.1,65.1
		c-0.2,0-0.4-0.1-0.5-0.2c-0.3-0.3-0.4-0.8-0.1-1.1c0.5-0.5,1-1.1,1.5-1.6c0.2-0.2,0.4-0.3,0.6-0.3c0.2,0,0.4,0.1,0.5,0.2
		c0.2,0.1,0.3,0.3,0.3,0.6c0,0.2-0.1,0.4-0.2,0.6c-0.5,0.5-1,1.1-1.5,1.6C55.6,65,55.3,65.1,55.1,65.1z M58.1,61.8
		c-0.2,0-0.4-0.1-0.6-0.2c-0.2-0.1-0.2-0.3-0.3-0.6c0-0.2,0.1-0.4,0.2-0.6c0.5-0.5,1-1.1,1.5-1.6c0.2-0.2,0.4-0.2,0.6-0.2
		c0.2,0,0.4,0.1,0.6,0.2c0.2,0.1,0.2,0.4,0.2,0.6c0,0.2-0.1,0.4-0.2,0.6c-0.5,0.5-1,1-1.5,1.6C58.5,61.7,58.3,61.8,58.1,61.8z
		 M61.1,58.7c-0.2,0-0.4-0.1-0.6-0.2c-0.3-0.3-0.3-0.8,0-1.1c0.5-0.4,0.9-0.9,1.4-1.3l0.2-0.2c0.1-0.1,0.3-0.2,0.6-0.2
		c0.2,0,0.4,0.1,0.6,0.2c0.1,0.2,0.2,0.4,0.2,0.6c0,0.2-0.1,0.4-0.2,0.6L63,57.2c-0.5,0.4-0.9,0.9-1.4,1.3
		C61.5,58.6,61.3,58.7,61.1,58.7z M64.3,55.7c-0.2,0-0.4-0.1-0.6-0.3c-0.3-0.3-0.3-0.8,0-1.1c0.5-0.5,1.1-1,1.6-1.5
		c0.1-0.1,0.3-0.2,0.5-0.2c0.2,0,0.4,0.1,0.6,0.3c0.1,0.2,0.2,0.4,0.2,0.6c0,0.2-0.1,0.4-0.3,0.6c-0.5,0.5-1.1,1-1.6,1.5
		C64.7,55.6,64.5,55.7,64.3,55.7z M67.6,52.8c-0.2,0-0.5-0.1-0.6-0.3c-0.3-0.3-0.3-0.8,0.1-1.1c0.6-0.5,1.1-1,1.7-1.4
		c0.1-0.1,0.3-0.2,0.5-0.2c0.2,0,0.5,0.1,0.6,0.3c0.3,0.3,0.2,0.8-0.1,1.1c-0.6,0.5-1.1,0.9-1.7,1.4C67.9,52.7,67.8,52.8,67.6,52.8z
		 M70.9,50c-0.2,0-0.5-0.1-0.6-0.3c-0.3-0.3-0.2-0.9,0.1-1.1c0.6-0.5,1.1-0.9,1.7-1.4c0.1-0.1,0.3-0.2,0.5-0.2
		c0.2,0,0.5,0.1,0.6,0.3c0.1,0.2,0.2,0.4,0.2,0.6c0,0.2-0.1,0.4-0.3,0.5c-0.6,0.4-1.1,0.9-1.7,1.4C71.3,49.9,71.1,50,70.9,50z
		 M74.4,47.3c-0.3,0-0.5-0.1-0.6-0.3c-0.1-0.2-0.2-0.4-0.2-0.6c0-0.2,0.1-0.4,0.3-0.5c0.6-0.4,1.2-0.9,1.8-1.3
		c0.1-0.1,0.3-0.2,0.5-0.2c0.3,0,0.5,0.1,0.7,0.3c0.1,0.2,0.2,0.4,0.1,0.6c0,0.2-0.1,0.4-0.3,0.5c-0.6,0.4-1.2,0.9-1.8,1.3
		C74.7,47.2,74.6,47.3,74.4,47.3z M77.9,44.7c-0.3,0-0.5-0.1-0.7-0.3c-0.1-0.2-0.2-0.4-0.1-0.6c0-0.2,0.2-0.4,0.3-0.5
		c0.6-0.4,1.2-0.8,1.8-1.2c0.1-0.1,0.3-0.1,0.4-0.1c0.3,0,0.5,0.1,0.7,0.4c0.1,0.2,0.2,0.4,0.1,0.6c0,0.2-0.2,0.4-0.3,0.5
		c-0.6,0.4-1.2,0.8-1.8,1.2C78.3,44.6,78.1,44.7,77.9,44.7z M81.6,42.2c-0.3,0-0.5-0.1-0.7-0.4c-0.2-0.4-0.1-0.9,0.2-1.1
		c0.6-0.4,1.2-0.8,1.9-1.2c0.1-0.1,0.3-0.1,0.4-0.1c0.3,0,0.5,0.1,0.7,0.4c0.1,0.2,0.1,0.4,0.1,0.6c0,0.2-0.2,0.4-0.4,0.5
		c-0.6,0.4-1.2,0.8-1.8,1.2C81.9,42.2,81.7,42.2,81.6,42.2z"/>
	<path class="st3" d="M99.7,35.6c-0.4,0-0.7-0.2-1-0.4c-0.3-0.3-0.4-0.6-0.4-1l0-1.4c0-0.1,0-0.3-0.1-0.4c-0.1-0.1-0.2-0.1-0.3-0.2
		l-1.4,0c-0.4,0-0.7-0.2-1-0.4c-0.3-0.3-0.4-0.6-0.4-1c0-0.7,0.6-1.3,1.4-1.3l1.5,0c0.3,0,0.5-0.2,0.5-0.5l0-1.4
		c0-0.7,0.6-1.3,1.4-1.3l0.2,0c0.4,0,0.7,0.2,1,0.4c0.3,0.3,0.4,0.6,0.4,1l0,1.4c0,0.1,0,0.3,0.1,0.4c0.1,0.1,0.2,0.2,0.3,0.2l1.4,0
		c0.8,0,1.4,0.6,1.3,1.4c0,0.7-0.6,1.3-1.4,1.3l-1.5,0c-0.3,0-0.5,0.2-0.5,0.5l0,1.4c0,0.7-0.6,1.3-1.4,1.3L99.7,35.6z"/>
	<path class="st3" d="M274.1,173.1c-1.9,0-3.6-0.7-5-2.1c-1.3-1.3-1.9-3.1-1.9-4.9c0-1.8,0.8-3.5,2.1-4.8c1.3-1.2,3-1.9,4.8-1.9
		c1.9,0,3.6,0.7,5,2.1c1.3,1.3,1.9,3.1,1.9,4.9c0,1.8-0.8,3.5-2.1,4.8C277.6,172.4,275.9,173.1,274.1,173.1z M274.1,161
		c-1.4,0-2.7,0.5-3.6,1.5c-1,1-1.6,2.3-1.6,3.7c0,1.4,0.5,2.7,1.5,3.7c1,1,2.3,1.6,3.8,1.6c1.4,0,2.7-0.5,3.6-1.5
		c1-1,1.6-2.3,1.6-3.7c0-1.4-0.5-2.7-1.5-3.7C276.9,161.6,275.6,161,274.1,161z"/>
</g>
</svg>
